<?xml version="1.0" encoding="UTF-8"?>
<svg xmlns="http://www.w3.org/2000/svg" xmlns:xlink="http://www.w3.org/1999/xlink" width="40px" height="px" viewBox="0 0 40 40" version="1.1">
<g id="surface1">
<path style=" stroke:none;fill-rule:nonzero;fill:rgb(25.882353%,49.019608%,61.568627%);fill-opacity:1;" d="M 27.476562 16.449219 C 27.460938 16.0625 27.273438 15.707031 26.964844 15.476562 L 25.84375 14.644531 L 20.613281 10.75 L 16.660156 7.8125 L 15.820312 7.1875 C 15.777344 7.152344 15.722656 7.136719 15.667969 7.136719 C 15.640625 7.136719 15.613281 7.140625 15.589844 7.148438 L 9.660156 9.035156 C 9.570312 9.0625 9.503906 9.140625 9.484375 9.238281 C 9.46875 9.335938 9.511719 9.429688 9.589844 9.488281 L 10.011719 9.796875 L 14.011719 12.722656 L 19.3125 16.59375 L 20.5 17.460938 C 20.808594 17.6875 21 18.046875 21.019531 18.429688 L 21.683594 32.683594 L 21.691406 32.777344 C 21.691406 32.855469 21.730469 32.929688 21.796875 32.972656 C 21.839844 33.007812 21.894531 33.023438 21.949219 33.023438 C 21.96875 33.023438 21.992188 33.019531 22.015625 33.015625 L 27.894531 31.429688 C 28.011719 31.398438 28.089844 31.289062 28.085938 31.167969 L 28.070312 30.777344 Z M 27.476562 16.449219 "/>
<path style=" stroke:none;fill-rule:nonzero;fill:rgb(25.882353%,49.019608%,61.568627%);fill-opacity:1;" d="M 19.0625 18.855469 L 16.9375 17.300781 L 11.839844 18.824219 L 6.421875 14.988281 L 11.636719 13.429688 L 8.417969 11.078125 C 8.179688 10.902344 8.003906 10.679688 7.855469 10.4375 L 1.410156 12.363281 C 0.6875 12.578125 0.148438 13.191406 0.0273438 13.933594 C -0.09375 14.671875 0.210938 15.40625 0.8125 15.847656 C 0.40625 16.144531 0.109375 16.589844 0.0273438 17.105469 C -0.09375 17.839844 0.210938 18.578125 0.8125 19.015625 C 0.40625 19.316406 0.109375 19.757812 0.0273438 20.273438 C -0.09375 21.007812 0.210938 21.746094 0.808594 22.183594 C 0.40625 22.484375 0.109375 22.925781 0.0273438 23.441406 C -0.09375 24.179688 0.210938 24.914062 0.8125 25.355469 C 0.40625 25.65625 0.109375 26.097656 0.0273438 26.613281 C -0.0976562 27.359375 0.214844 28.105469 0.832031 28.542969 L 10.339844 35.277344 C 10.679688 35.519531 11.078125 35.640625 11.480469 35.640625 C 11.671875 35.640625 11.863281 35.617188 12.046875 35.558594 L 19.777344 33.253906 C 19.75 33.125 19.722656 33 19.71875 32.871094 Z M 19.0625 18.855469 "/>
<path style=" stroke:none;fill-rule:nonzero;fill:rgb(25.882353%,49.019608%,61.568627%);fill-opacity:1;" d="M 39.972656 19.726562 C 40.09375 18.992188 39.789062 18.253906 39.1875 17.816406 C 39.597656 17.515625 39.890625 17.074219 39.972656 16.558594 C 40.09375 15.820312 39.789062 15.085938 39.1875 14.644531 C 39.597656 14.34375 39.890625 13.902344 39.972656 13.386719 C 40.097656 12.640625 39.785156 11.894531 39.167969 11.457031 L 29.660156 4.722656 C 29.164062 4.371094 28.539062 4.265625 27.953125 4.441406 L 19.019531 7.105469 L 22.972656 10.046875 L 28.164062 8.5 L 33.578125 12.335938 L 28.195312 13.941406 C 28.949219 14.53125 29.410156 15.40625 29.449219 16.367188 L 30.023438 30.195312 L 38.589844 27.636719 C 39.316406 27.417969 39.851562 26.808594 39.972656 26.066406 C 40.09375 25.328125 39.789062 24.59375 39.1875 24.152344 C 39.597656 23.855469 39.890625 23.410156 39.972656 22.894531 C 40.09375 22.160156 39.789062 21.421875 39.1875 20.984375 C 39.597656 20.683594 39.890625 20.242188 39.972656 19.726562 Z M 39.972656 19.726562 "/>
</g>
</svg>
