<?xml version="1.0" encoding="UTF-8"?>
<svg xmlns="http://www.w3.org/2000/svg" xmlns:xlink="http://www.w3.org/1999/xlink" width="40px" height="px" viewBox="0 0 40 40" version="1.1">
<g id="surface1">
<path style=" stroke:none;fill-rule:nonzero;fill:rgb(25.882353%,49.019608%,61.568627%);fill-opacity:1;" d="M 7.425781 27.152344 L 9.171875 39.136719 L 30.828125 39.136719 L 32.574219 27.152344 Z M 20 34.179688 C 19.101562 34.179688 18.375 33.699219 18.375 33.109375 C 18.375 32.519531 19.101562 32.042969 20 32.042969 C 20.898438 32.042969 21.625 32.519531 21.625 33.109375 C 21.625 33.699219 20.898438 34.179688 20 34.179688 Z M 36.457031 36.960938 L 32.386719 36.960938 L 33.996094 25.925781 L 6.003906 25.925781 L 7.613281 36.960938 L 3.542969 36.960938 C 1.222656 36.960938 -0.339844 34.585938 0.578125 32.457031 L 6.332031 19.097656 C 7.449219 16.503906 10 14.824219 12.824219 14.824219 L 15.089844 14.824219 L 18.664062 20.144531 L 19.394531 16.667969 L 18.175781 14.824219 L 21.84375 14.824219 L 20.625 16.667969 L 21.351562 20.121094 L 24.910156 14.824219 L 27.175781 14.824219 C 30 14.824219 32.554688 16.503906 33.667969 19.097656 L 39.421875 32.457031 C 40.339844 34.585938 38.777344 36.960938 36.457031 36.960938 Z M 20 0.863281 C 23.515625 0.863281 26.363281 3.714844 26.363281 7.230469 C 26.363281 10.742188 23.515625 13.59375 20 13.59375 C 16.484375 13.59375 13.636719 10.742188 13.636719 7.230469 C 13.636719 3.714844 16.484375 0.863281 20 0.863281 Z M 20 0.863281 "/>
</g>
</svg>
