<?xml version="1.0" encoding="UTF-8"?>
<svg xmlns="http://www.w3.org/2000/svg" xmlns:xlink="http://www.w3.org/1999/xlink" width="40px" height="px" viewBox="0 0 40 40" version="1.1">
<g id="surface1">
<path style=" stroke:none;fill-rule:nonzero;fill:rgb(37.647059%,58.823529%,72.941176%);fill-opacity:1;" d="M 15 14.375 C 15 16.445312 13.320312 18.125 11.25 18.125 C 9.179688 18.125 7.5 16.445312 7.5 14.375 C 7.5 12.304688 9.179688 10.625 11.25 10.625 C 13.320312 10.625 15 12.304688 15 14.375 Z M 15 14.375 "/>
<path style=" stroke:none;fill-rule:nonzero;fill:rgb(15.294118%,29.803922%,46.666667%);fill-opacity:1;" d="M 20.855469 21.125 L 23.226562 20.789062 C 23.429688 20.757812 23.617188 20.679688 23.78125 20.574219 C 24.070312 23.414062 26.460938 25.625 29.375 25.625 C 32.480469 25.625 35 23.105469 35 20 C 35 16.894531 32.480469 14.375 29.375 14.375 C 26.789062 14.375 24.613281 16.117188 23.957031 18.492188 C 23.710938 18.261719 23.394531 18.125 23.039062 18.125 L 20.699219 18.125 C 20.949219 16.9375 21.445312 15.832031 22.125 14.875 C 22.644531 14.792969 23.144531 14.5625 23.539062 14.164062 C 23.9375 13.769531 24.167969 13.269531 24.25 12.75 C 25.304688 12 26.542969 11.476562 27.875 11.25 C 28.300781 11.5625 28.8125 11.75 29.375 11.75 C 29.9375 11.75 30.449219 11.5625 30.875 11.25 C 32.207031 11.476562 33.445312 12 34.5 12.75 C 34.582031 13.269531 34.8125 13.769531 35.210938 14.164062 C 35.605469 14.5625 36.105469 14.792969 36.625 14.875 C 37.375 15.929688 37.898438 17.167969 38.125 18.5 C 37.8125 18.925781 37.625 19.4375 37.625 20 C 37.625 20.5625 37.8125 21.074219 38.125 21.5 C 37.898438 22.832031 37.375 24.070312 36.625 25.125 C 36.105469 25.207031 35.605469 25.4375 35.210938 25.835938 C 34.8125 26.230469 34.582031 26.730469 34.5 27.25 C 33.445312 28 32.207031 28.523438 30.875 28.75 C 30.449219 28.4375 29.9375 28.25 29.375 28.25 C 28.8125 28.25 28.300781 28.4375 27.875 28.75 C 26.542969 28.523438 25.304688 28 24.25 27.25 C 24.167969 26.730469 23.9375 26.230469 23.539062 25.835938 C 23.144531 25.4375 22.644531 25.207031 22.125 25.125 C 21.375 24.070312 20.851562 22.832031 20.625 21.5 C 20.710938 21.382812 20.789062 21.257812 20.855469 21.125 Z M 20.855469 21.125 "/>
<path style=" stroke:none;fill-rule:nonzero;fill:rgb(96.078431%,86.666667%,56.470588%);fill-opacity:1;" d="M 23.78125 20.574219 C 24.070312 23.414062 26.460938 25.625 29.375 25.625 C 32.480469 25.625 35 23.105469 35 20 C 35 16.894531 32.480469 14.375 29.375 14.375 C 26.789062 14.375 24.613281 16.117188 23.957031 18.492188 L 23.980469 18.519531 C 24.226562 18.761719 24.375 19.09375 24.375 19.460938 C 24.375 19.925781 24.144531 20.335938 23.78125 20.574219 Z M 23.78125 20.574219 "/>
<path style=" stroke:none;fill-rule:nonzero;fill:rgb(37.647059%,58.823529%,72.941176%);fill-opacity:1;" d="M 23.039062 18.125 L 8.730469 18.125 C 7.175781 18.125 5.707031 18.84375 4.761719 20.082031 C 3.507812 21.726562 2.117188 24.59375 1.90625 29.332031 C 1.875 30.03125 2.4375 30.617188 3.144531 30.617188 L 3.175781 30.617188 C 3.84375 30.617188 4.375 30.113281 4.445312 29.457031 C 4.832031 25.742188 6.882812 21.867188 6.882812 21.867188 L 6.882812 30.617188 L 15.632812 30.617188 L 15.632812 22.949219 C 15.632812 22.324219 16.085938 21.800781 16.707031 21.710938 L 23.230469 20.78125 C 23.894531 20.6875 24.382812 20.125 24.382812 19.457031 C 24.382812 18.71875 23.78125 18.117188 23.042969 18.117188 Z M 23.039062 18.125 "/>
<path style=" stroke:none;fill-rule:nonzero;fill:rgb(63.921569%,80.784314%,94.509804%);fill-opacity:1;" d="M 33.125 5 C 33.125 7.070312 31.445312 8.75 29.375 8.75 C 27.304688 8.75 25.625 7.070312 25.625 5 C 25.625 2.929688 27.304688 1.25 29.375 1.25 C 31.445312 1.25 33.125 2.929688 33.125 5 Z M 33.125 5 "/>
<path style=" stroke:none;fill-rule:nonzero;fill:rgb(63.921569%,80.784314%,94.509804%);fill-opacity:1;" d="M 33.125 35 C 33.125 37.070312 31.445312 38.75 29.375 38.75 C 27.304688 38.75 25.625 37.070312 25.625 35 C 25.625 32.929688 27.304688 31.25 29.375 31.25 C 31.445312 31.25 33.125 32.929688 33.125 35 Z M 33.125 35 "/>
</g>
</svg>
