<?xml version="1.0" encoding="UTF-8"?>
<svg xmlns="http://www.w3.org/2000/svg" xmlns:xlink="http://www.w3.org/1999/xlink" width="40px" height="px" viewBox="0 0 40 40" version="1.1">
<g id="surface1">
<path style=" stroke:none;fill-rule:nonzero;fill:rgb(0%,0%,0%);fill-opacity:1;" d="M 12.25 19.382812 L 27.75 19.382812 L 27.75 20.632812 L 12.25 20.632812 Z M 12.25 19.382812 "/>
<path style=" stroke:none;fill-rule:nonzero;fill:rgb(0%,0%,0%);fill-opacity:1;" d="M 19.375 13.988281 L 20.625 13.988281 L 20.625 26.027344 L 19.375 26.027344 Z M 19.375 13.988281 "/>
<path style=" stroke:none;fill-rule:nonzero;fill:rgb(25.882353%,49.019608%,61.568627%);fill-opacity:1;" d="M 22.597656 2.597656 C 22.597656 4.03125 21.433594 5.195312 20 5.195312 C 18.566406 5.195312 17.402344 4.03125 17.402344 2.597656 C 17.402344 1.164062 18.566406 0 20 0 C 21.433594 0 22.597656 1.164062 22.597656 2.597656 Z M 22.597656 2.597656 "/>
<path style=" stroke:none;fill-rule:nonzero;fill:rgb(25.882353%,49.019608%,61.568627%);fill-opacity:1;" d="M 19.882812 11.402344 L 17.402344 5.976562 C 17.402344 5.976562 14.804688 6.035156 14.804688 8.398438 L 14.804688 11.398438 Z M 19.882812 11.402344 "/>
<path style=" stroke:none;fill-rule:nonzero;fill:rgb(25.882353%,49.019608%,61.568627%);fill-opacity:1;" d="M 20.117188 11.402344 L 22.597656 5.976562 C 22.597656 5.976562 25.195312 6.035156 25.195312 8.398438 L 25.195312 11.398438 Z M 20.117188 11.402344 "/>
<path style=" stroke:none;fill-rule:nonzero;fill:rgb(88.627451%,10.588235%,10.588235%);fill-opacity:1;" d="M 18.183594 5.976562 L 20 10.015625 L 21.816406 5.976562 Z M 18.183594 5.976562 "/>
<path style=" stroke:none;fill-rule:nonzero;fill:rgb(25.882353%,49.019608%,61.568627%);fill-opacity:1;" d="M 37.402344 16.898438 C 37.402344 18.335938 36.242188 19.496094 34.804688 19.496094 C 33.371094 19.496094 32.210938 18.335938 32.210938 16.898438 C 32.210938 15.464844 33.371094 14.304688 34.804688 14.304688 C 36.242188 14.304688 37.402344 15.464844 37.402344 16.898438 Z M 37.402344 16.898438 "/>
<path style=" stroke:none;fill-rule:nonzero;fill:rgb(25.882353%,49.019608%,61.568627%);fill-opacity:1;" d="M 34.691406 25.699219 L 32.210938 20.277344 C 32.210938 20.277344 29.613281 20.332031 29.613281 22.699219 L 29.613281 25.699219 Z M 34.691406 25.699219 "/>
<path style=" stroke:none;fill-rule:nonzero;fill:rgb(25.882353%,49.019608%,61.568627%);fill-opacity:1;" d="M 34.921875 25.699219 L 37.402344 20.277344 C 37.402344 20.277344 40 20.332031 40 22.699219 L 40 25.699219 Z M 34.921875 25.699219 "/>
<path style=" stroke:none;fill-rule:nonzero;fill:rgb(88.627451%,10.588235%,10.588235%);fill-opacity:1;" d="M 32.992188 20.277344 L 34.804688 24.316406 L 36.621094 20.277344 Z M 32.992188 20.277344 "/>
<path style=" stroke:none;fill-rule:nonzero;fill:rgb(25.882353%,49.019608%,61.568627%);fill-opacity:1;" d="M 7.789062 16.898438 C 7.789062 18.335938 6.628906 19.496094 5.195312 19.496094 C 3.757812 19.496094 2.597656 18.335938 2.597656 16.898438 C 2.597656 15.464844 3.757812 14.304688 5.195312 14.304688 C 6.628906 14.304688 7.789062 15.464844 7.789062 16.898438 Z M 7.789062 16.898438 "/>
<path style=" stroke:none;fill-rule:nonzero;fill:rgb(25.882353%,49.019608%,61.568627%);fill-opacity:1;" d="M 5.078125 25.699219 L 2.597656 20.277344 C 2.597656 20.277344 0 20.332031 0 22.699219 L 0 25.699219 Z M 5.078125 25.699219 "/>
<path style=" stroke:none;fill-rule:nonzero;fill:rgb(25.882353%,49.019608%,61.568627%);fill-opacity:1;" d="M 5.308594 25.699219 L 7.789062 20.277344 C 7.789062 20.277344 10.386719 20.332031 10.386719 22.699219 L 10.386719 25.699219 Z M 5.308594 25.699219 "/>
<path style=" stroke:none;fill-rule:nonzero;fill:rgb(88.627451%,10.588235%,10.588235%);fill-opacity:1;" d="M 3.378906 20.277344 L 5.195312 24.316406 L 7.007812 20.277344 Z M 3.378906 20.277344 "/>
<path style=" stroke:none;fill-rule:nonzero;fill:rgb(25.882353%,49.019608%,61.568627%);fill-opacity:1;" d="M 22.597656 31.195312 C 22.597656 32.628906 21.433594 33.792969 20 33.792969 C 18.566406 33.792969 17.402344 32.628906 17.402344 31.195312 C 17.402344 29.761719 18.566406 28.597656 20 28.597656 C 21.433594 28.597656 22.597656 29.761719 22.597656 31.195312 Z M 22.597656 31.195312 "/>
<path style=" stroke:none;fill-rule:nonzero;fill:rgb(25.882353%,49.019608%,61.568627%);fill-opacity:1;" d="M 19.882812 40 L 17.402344 34.574219 C 17.402344 34.574219 14.804688 34.632812 14.804688 37 L 14.804688 40 Z M 19.882812 40 "/>
<path style=" stroke:none;fill-rule:nonzero;fill:rgb(25.882353%,49.019608%,61.568627%);fill-opacity:1;" d="M 20.117188 40 L 22.597656 34.574219 C 22.597656 34.574219 25.195312 34.632812 25.195312 37 L 25.195312 40 Z M 20.117188 40 "/>
<path style=" stroke:none;fill-rule:nonzero;fill:rgb(88.627451%,10.588235%,10.588235%);fill-opacity:1;" d="M 18.183594 34.574219 L 20 38.613281 L 21.816406 34.574219 Z M 18.183594 34.574219 "/>
</g>
</svg>
