<?xml version="1.0" encoding="UTF-8"?>
<svg xmlns="http://www.w3.org/2000/svg" xmlns:xlink="http://www.w3.org/1999/xlink" width="40px" height="px" viewBox="0 0 40 40" version="1.1">
<defs>
<linearGradient id="linear0" gradientUnits="userSpaceOnUse" x1="28.607" y1="-60.825" x2="11.085" y2="-50.756" gradientTransform="matrix(1.25,0,0,-1.25,0,-37.075)">
<stop offset="0.18" style="stop-color:rgb(0%,32.156863%,80%);stop-opacity:1;"/>
<stop offset="1" style="stop-color:rgb(14.901961%,51.764706%,100%);stop-opacity:1;"/>
</linearGradient>
<linearGradient id="linear1" gradientUnits="userSpaceOnUse" x1="621.442" y1="1817.567" x2="603.915" y2="1827.64" gradientTransform="matrix(-1.25,0,0,1.25,781.0375,-2270.8875)">
<stop offset="0.18" style="stop-color:rgb(0%,32.156863%,80%);stop-opacity:1;"/>
<stop offset="1" style="stop-color:rgb(14.901961%,51.764706%,100%);stop-opacity:1;"/>
</linearGradient>
</defs>
<g id="surface1">
<path style=" stroke:none;fill-rule:nonzero;fill:url(#linear0);" d="M 3.769531 28.859375 C 3.40625 29.449219 3 30.132812 2.65625 30.679688 C 2.347656 31.203125 2.511719 31.875 3.03125 32.195312 L 10.269531 36.648438 C 10.519531 36.804688 10.824219 36.851562 11.113281 36.785156 C 11.398438 36.71875 11.648438 36.539062 11.800781 36.285156 L 11.8125 36.269531 C 12.101562 35.785156 12.476562 35.15625 12.882812 34.484375 C 15.75 29.75 18.632812 30.328125 23.835938 32.8125 L 31.015625 36.226562 C 31.570312 36.492188 32.234375 36.253906 32.5 35.699219 L 32.515625 35.667969 L 35.957031 27.875 C 36.199219 27.320312 35.953125 26.667969 35.402344 26.417969 C 33.886719 25.703125 30.875 24.28125 28.160156 22.972656 C 18.40625 18.234375 10.113281 18.539062 3.769531 28.859375 Z M 3.769531 28.859375 "/>
<path style=" stroke:none;fill-rule:nonzero;fill:url(#linear1);" d="M 36.230469 11.164062 C 36.59375 10.574219 37 9.890625 37.34375 9.34375 C 37.652344 8.820312 37.488281 8.148438 36.96875 7.828125 L 29.730469 3.375 C 29.222656 3.03125 28.53125 3.167969 28.1875 3.675781 C 28.171875 3.699219 28.15625 3.71875 28.144531 3.742188 C 27.855469 4.226562 27.484375 4.855469 27.074219 5.53125 C 24.207031 10.265625 21.324219 9.683594 16.121094 7.199219 L 8.964844 3.804688 C 8.699219 3.675781 8.390625 3.660156 8.113281 3.757812 C 7.835938 3.859375 7.609375 4.0625 7.480469 4.328125 L 7.46875 4.359375 L 4.019531 12.15625 C 3.777344 12.714844 4.023438 13.363281 4.578125 13.617188 C 6.089844 14.328125 9.105469 15.75 11.816406 17.058594 C 21.59375 21.792969 29.886719 21.472656 36.230469 11.164062 Z M 36.230469 11.164062 "/>
</g>
</svg>
