<?xml version="1.0" encoding="UTF-8"?>
<svg xmlns="http://www.w3.org/2000/svg" xmlns:xlink="http://www.w3.org/1999/xlink" width="40px" height="px" viewBox="0 0 40 40" version="1.1">
<g id="surface1">
<path style=" stroke:none;fill-rule:nonzero;fill:rgb(33.72549%,23.921569%,48.627451%);fill-opacity:1;" d="M 0 34.84375 C 0 37.691406 2.308594 40 5.15625 40 L 34.84375 40 C 37.691406 40 40 37.691406 40 34.84375 L 40 5.15625 C 40 2.308594 37.691406 0 34.84375 0 L 5.15625 0 C 2.308594 0 0 2.308594 0 5.15625 Z M 0 34.84375 "/>
<path style=" stroke:none;fill-rule:nonzero;fill:rgb(100%,100%,100%);fill-opacity:1;" d="M 16.585938 17.695312 L 16.585938 12.027344 L 21.574219 12.027344 C 22.046875 12.027344 22.507812 12.070312 22.945312 12.148438 C 23.386719 12.226562 23.777344 12.367188 24.117188 12.570312 C 24.457031 12.773438 24.726562 13.058594 24.929688 13.417969 C 25.136719 13.78125 25.238281 14.246094 25.238281 14.808594 C 25.238281 15.828125 24.929688 16.5625 24.320312 17.015625 C 23.710938 17.46875 22.929688 17.695312 21.980469 17.695312 Z M 11.261719 7.890625 L 11.261719 32.109375 L 22.996094 32.109375 C 24.082031 32.109375 25.140625 31.972656 26.167969 31.703125 C 27.199219 31.429688 28.113281 31.011719 28.917969 30.449219 C 29.71875 29.882812 30.359375 29.152344 30.832031 28.257812 C 31.308594 27.367188 31.546875 26.308594 31.546875 25.089844 C 31.546875 23.574219 31.179688 22.277344 30.445312 21.203125 C 29.707031 20.128906 28.59375 19.378906 27.101562 18.949219 C 28.1875 18.429688 29.007812 17.761719 29.5625 16.945312 C 30.117188 16.132812 30.390625 15.117188 30.390625 13.894531 C 30.390625 12.765625 30.207031 11.8125 29.832031 11.046875 C 29.460938 10.277344 28.933594 9.660156 28.253906 9.195312 C 27.578125 8.734375 26.761719 8.398438 25.8125 8.195312 C 24.863281 7.992188 23.8125 7.890625 22.660156 7.890625 Z M 16.585938 27.972656 L 16.585938 21.324219 L 22.386719 21.324219 C 23.539062 21.324219 24.46875 21.589844 25.167969 22.121094 C 25.871094 22.652344 26.21875 23.539062 26.21875 24.78125 C 26.21875 25.414062 26.113281 25.9375 25.898438 26.34375 C 25.683594 26.75 25.394531 27.074219 25.03125 27.308594 C 24.671875 27.546875 24.253906 27.714844 23.777344 27.820312 C 23.304688 27.921875 22.804688 27.972656 22.285156 27.972656 Z M 16.585938 27.972656 "/>
</g>
</svg>
